<svg xmlns="http://www.w3.org/2000/svg" width="800" height="600" font-family="JetBrains Mono, monospace" font-size="13">
  <defs>
    <linearGradient id="bg" x1="0" y1="0" x2="0" y2="1">
      <stop offset="0%" stop-color="#0d1117"/>
      <stop offset="100%" stop-color="#161b22"/>
    </linearGradient>
  </defs>
  <rect width="800" height="600" fill="url(#bg)" rx="10"/>
  <rect width="800" height="32" fill="#21262d" rx="10"/>
  <rect y="10" width="800" height="22" fill="#21262d"/>
  <circle cx="20" cy="16" r="6" fill="#ff5f57"/>
  <circle cx="40" cy="16" r="6" fill="#febc2e"/>
  <circle cx="60" cy="16" r="6" fill="#28c840"/>
  <text x="400" y="20" text-anchor="middle" fill="#8b949e" font-size="12">Termux — QuinxOS Live Dashboard</text>
  <!-- Dashboard box -->
  <text x="60" y="60" fill="#00e5ff" font-size="11">╔══════════════════════════════════════════════════════════════╗</text>
  <text x="60" y="76" fill="#00e5ff" font-size="11">║</text>
  <text x="400" y="76" text-anchor="middle" fill="#ffffff" font-size="13" font-weight="bold">QUINXOS LIVE DASHBOARD v6.0</text>
  <text x="740" y="76" text-anchor="end" fill="#00e5ff" font-size="11">║</text>
  <text x="60" y="92" fill="#00e5ff" font-size="11">╠══════════════════════════════════════════════════════════════╣</text>
  <!-- Time -->
  <text x="60" y="112" fill="#00e5ff" font-size="11">║</text>
  <text x="80" y="112" fill="#a855f7" font-size="11">▸ Time:</text>
  <text x="200" y="112" fill="#ffffff" font-size="11">2026-05-02 21:36:07</text>
  <text x="740" y="112" text-anchor="end" fill="#00e5ff" font-size="11">║</text>
  <!-- CPU -->
  <text x="60" y="132" fill="#00e5ff" font-size="11">║</text>
  <text x="80" y="132" fill="#a855f7" font-size="11">▸ CPU:</text>
  <text x="200" y="132" fill="#2ed573" font-size="11">12%</text>
  <!-- CPU bar -->
  <rect x="250" y="121" width="200" height="14" rx="3" fill="#21262d"/>
  <rect x="250" y="121" width="24" height="14" rx="3" fill="#2ed573"/>
  <text x="470" y="132" fill="#8b949e" font-size="11">Load: 0.5 0.3 0.2</text>
  <text x="740" y="132" text-anchor="end" fill="#00e5ff" font-size="11">║</text>
  <!-- Memory -->
  <text x="60" y="152" fill="#00e5ff" font-size="11">║</text>
  <text x="80" y="152" fill="#a855f7" font-size="11">▸ Memory:</text>
  <text x="200" y="152" fill="#00e5ff" font-size="11">1200MB/4096MB (29%)</text>
  <rect x="430" y="141" width="200" height="14" rx="3" fill="#21262d"/>
  <rect x="430" y="141" width="58" height="14" rx="3" fill="#00e5ff"/>
  <text x="740" y="152" text-anchor="end" fill="#00e5ff" font-size="11">║</text>
  <!-- Disk -->
  <text x="60" y="172" fill="#00e5ff" font-size="11">║</text>
  <text x="80" y="172" fill="#a855f7" font-size="11">▸ Disk:</text>
  <text x="200" y="172" fill="#ffa502" font-size="11">8.2G/64G (13%)</text>
  <rect x="400" y="161" width="200" height="14" rx="3" fill="#21262d"/>
  <rect x="400" y="161" width="26" height="14" rx="3" fill="#ffa502"/>
  <text x="740" y="172" text-anchor="end" fill="#00e5ff" font-size="11">║</text>
  <!-- Battery -->
  <text x="60" y="192" fill="#00e5ff" font-size="11">║</text>
  <text x="80" y="192" fill="#a855f7" font-size="11">▸ Battery:</text>
  <text x="200" y="192" fill="#2ed573" font-size="11">85%</text>
  <text x="260" y="192" fill="#8b949e" font-size="11">⚡ Charging • Temp: 32°C • Health: Good</text>
  <text x="740" y="192" text-anchor="end" fill="#00e5ff" font-size="11">║</text>
  <!-- Network -->
  <text x="60" y="212" fill="#00e5ff" font-size="11">║</text>
  <text x="80" y="212" fill="#a855f7" font-size="11">▸ Network:</text>
  <text x="200" y="212" fill="#ffffff" font-size="11">IP: 192.168.1.5</text>
  <text x="380" y="212" fill="#8b949e" font-size="11">WiFi: MyNetwork (5GHz)</text>
  <text x="740" y="212" text-anchor="end" fill="#00e5ff" font-size="11">║</text>
  <!-- Processes -->
  <text x="60" y="232" fill="#00e5ff" font-size="11">║</text>
  <text x="80" y="232" fill="#a855f7" font-size="11">▸ Processes:</text>
  <text x="200" y="232" fill="#ffffff" font-size="11">142 total, 3 running, 139 sleeping</text>
  <text x="740" y="232" text-anchor="end" fill="#00e5ff" font-size="11">║</text>
  <!-- Top processes -->
  <text x="60" y="252" fill="#00e5ff" font-size="11">║</text>
  <text x="80" y="252" fill="#a855f7" font-size="11">▸ Top Processes:</text>
  <text x="740" y="252" text-anchor="end" fill="#00e5ff" font-size="11">║</text>
  <text x="60" y="270" fill="#00e5ff" font-size="11">║</text>
  <text x="100" y="270" fill="#8b949e" font-size="10">  PID   CPU%  MEM%  COMMAND</text>
  <text x="740" y="270" text-anchor="end" fill="#00e5ff" font-size="11">║</text>
  <text x="60" y="286" fill="#00e5ff" font-size="11">║</text>
  <text x="100" y="286" fill="#ffffff" font-size="10">  1847   8.2   4.1  zsh</text>
  <text x="740" y="286" text-anchor="end" fill="#00e5ff" font-size="11">║</text>
  <text x="60" y="302" fill="#00e5ff" font-size="11">║</text>
  <text x="100" y="302" fill="#ffffff" font-size="10">  2103   3.1   2.8  node</text>
  <text x="740" y="302" text-anchor="end" fill="#00e5ff" font-size="11">║</text>
  <text x="60" y="318" fill="#00e5ff" font-size="11">║</text>
  <text x="100" y="318" fill="#ffffff" font-size="10">  1562   1.4   1.2  sshd</text>
  <text x="740" y="318" text-anchor="end" fill="#00e5ff" font-size="11">║</text>
  <!-- Uptime -->
  <text x="60" y="340" fill="#00e5ff" font-size="11">║</text>
  <text x="80" y="340" fill="#a855f7" font-size="11">▸ Uptime:</text>
  <text x="200" y="340" fill="#ffffff" font-size="11">3d 14h 22m</text>
  <text x="740" y="340" text-anchor="end" fill="#00e5ff" font-size="11">║</text>
  <!-- Git -->
  <text x="60" y="358" fill="#00e5ff" font-size="11">║</text>
  <text x="80" y="358" fill="#a855f7" font-size="11">▸ Git Branch:</text>
  <text x="200" y="358" fill="#2ed573" font-size="11">main</text>
  <text x="260" y="358" fill="#8b949e" font-size="11">• 6 commits • clean</text>
  <text x="740" y="358" text-anchor="end" fill="#00e5ff" font-size="11">║</text>
  <text x="60" y="375" fill="#00e5ff" font-size="11">╚══════════════════════════════════════════════════════════════╝</text>
  <!-- Refresh indicator -->
  <text x="60" y="405" fill="#484f58" font-size="10">Refreshing every 2s... Press [Q] to quit • [R] to refresh now</text>
  <!-- Header below -->
  <text x="60" y="440" fill="#8b949e" font-size="10">┌──[21:36:09] IP:192.168.1.5 BAT:85% RAM:1.2G/4G Git:[main]───────┘</text>
  <text x="60" y="580" fill="#484f58" font-size="9">QuinxOS v6.0 • Live Dashboard</text>
</svg>