<svg xmlns="http://www.w3.org/2000/svg" width="800" height="600" font-family="JetBrains Mono, monospace" font-size="13">
  <defs>
    <linearGradient id="bg" x1="0" y1="0" x2="0" y2="1">
      <stop offset="0%" stop-color="#0d1117"/>
      <stop offset="100%" stop-color="#161b22"/>
    </linearGradient>
  </defs>
  <rect width="800" height="600" fill="url(#bg)" rx="10"/>
  <!-- Title bar -->
  <rect width="800" height="32" fill="#21262d" rx="10"/>
  <rect y="10" width="800" height="22" fill="#21262d"/>
  <circle cx="20" cy="16" r="6" fill="#ff5f57"/>
  <circle cx="40" cy="16" r="6" fill="#febc2e"/>
  <circle cx="60" cy="16" r="6" fill="#28c840"/>
  <text x="400" y="20" text-anchor="middle" fill="#8b949e" font-size="12">Termux — QuinxOS v6.0</text>
  <!-- Banner -->
  <text x="40" y="65" fill="#00e5ff" font-size="11">
    <tspan x="40" dy="0">    ██████╗ ██╗   ██╗██╗███╗   ██╗██╗  ██╗ ██████╗ ███████╗</tspan>
    <tspan x="40" dy="14">   ██╔═══██╗██║   ██║██║████╗  ██║╚██╗██╔╝██╔═══██╗██╔════╝</tspan>
    <tspan x="40" dy="14">   ██║   ██║██║   ██║██║██╔██╗ ██║ ╚███╔╝ ██║   ██║███████╗</tspan>
    <tspan x="40" dy="14">   ██║▄▄ ██║██║   ██║██║██║╚██╗██║ ██╔██╗ ██║   ██║╚════██║</tspan>
    <tspan x="40" dy="14">   ╚██████╔╝╚██████╔╝██║██║ ╚████║██╔╝ ██╗╚██████╔╝███████║</tspan>
    <tspan x="40" dy="14">    ╚══▀▀═╝  ╚═════╝ ╚═╝╚═╝  ╚═══╝╚═╝  ╚═╝ ╚═════╝ ╚══════╝</tspan>
  </text>
  <!-- Version badge -->
  <text x="40" y="160" fill="#8b949e" font-size="11">              The Ultimate Termux Customization Suite  </text>
  <text x="40" y="178" fill="#8b949e" font-size="11">                       </text>
  <rect x="260" y="166" width="50" height="16" rx="4" fill="#00e5ff" fill-opacity="0.15" stroke="#00e5ff" stroke-width="1"/>
  <text x="285" y="178" text-anchor="middle" fill="#00e5ff" font-size="10">v6.0</text>
  <rect x="318" y="166" width="60" height="16" rx="4" fill="#a855f7" fill-opacity="0.15" stroke="#a855f7" stroke-width="1"/>
  <text x="348" y="178" text-anchor="middle" fill="#a855f7" font-size="10">22 themes</text>
  <rect x="386" y="166" width="60" height="16" rx="4" fill="#2ed573" fill-opacity="0.15" stroke="#2ed573" stroke-width="1"/>
  <text x="416" y="178" text-anchor="middle" fill="#2ed573" font-size="10">14 plugins</text>
  <!-- Box -->
  <text x="40" y="205" fill="#00e5ff" font-size="11">  ╔══════════════════════════════════════════════════════════╗</text>
  <text x="40" y="220" fill="#00e5ff" font-size="11">  ║</text>
  <text x="290" y="220" text-anchor="middle" fill="#ffffff" font-size="11" font-weight="bold">MAIN MENU</text>
  <text x="760" y="220" text-anchor="end" fill="#00e5ff" font-size="11">║</text>
  <text x="40" y="235" fill="#00e5ff" font-size="11">  ╠──────────────────────────────────────────────────────────╣</text>
  <!-- Menu items -->
  <text x="40" y="252" fill="#00e5ff" font-size="11">  ║</text><text x="60" y="252" fill="#00e5ff" font-size="11">  [</text><text x="78" y="252" fill="#ffffff" font-size="11">01</text><text x="94" y="252" fill="#00e5ff" font-size="11">]</text><text x="104" y="252" fill="#2ed573" font-size="11"> Core Setup           </text><text x="400" y="252" fill="#8b949e" font-size="11">Install base</text><text x="760" y="252" text-anchor="end" fill="#00e5ff" font-size="11">║</text>
  <text x="40" y="267" fill="#00e5ff" font-size="11">  ║</text><text x="60" y="267" fill="#00e5ff" font-size="11">  [</text><text x="78" y="267" fill="#ffffff" font-size="11">02</text><text x="94" y="267" fill="#00e5ff" font-size="11">]</text><text x="104" y="267" fill="#2ed573" font-size="11"> Zsh Config           </text><text x="400" y="267" fill="#8b949e" font-size="11">Configure shell</text><text x="760" y="267" text-anchor="end" fill="#00e5ff" font-size="11">║</text>
  <text x="40" y="282" fill="#00e5ff" font-size="11">  ║</text><text x="60" y="282" fill="#00e5ff" font-size="11">  [</text><text x="78" y="282" fill="#ffffff" font-size="11">03</text><text x="94" y="282" fill="#00e5ff" font-size="11">]</text><text x="104" y="282" fill="#2ed573" font-size="11"> Switch → Zsh         </text><text x="400" y="282" fill="#8b949e" font-size="11">Default shell</text><text x="760" y="282" text-anchor="end" fill="#00e5ff" font-size="11">║</text>
  <text x="40" y="297" fill="#00e5ff" font-size="11">  ║</text><text x="60" y="297" fill="#00e5ff" font-size="11">  [</text><text x="78" y="297" fill="#ffffff" font-size="11">08</text><text x="94" y="297" fill="#00e5ff" font-size="11">]</text><text x="104" y="297" fill="#a855f7" font-size="11"> Theme Gallery (22)   </text><text x="400" y="297" fill="#8b949e" font-size="11">Color schemes</text><text x="760" y="297" text-anchor="end" fill="#00e5ff" font-size="11">║</text>
  <text x="40" y="312" fill="#00e5ff" font-size="11">  ║</text><text x="60" y="312" fill="#00e5ff" font-size="11">  [</text><text x="78" y="312" fill="#ffffff" font-size="11">11</text><text x="94" y="312" fill="#00e5ff" font-size="11">]</text><text x="104" y="312" fill="#a855f7" font-size="11"> Anime Themes         </text><text x="400" y="312" fill="#8b949e" font-size="11">7 palettes</text><text x="760" y="312" text-anchor="end" fill="#00e5ff" font-size="11">║</text>
  <text x="40" y="327" fill="#00e5ff" font-size="11">  ║</text><text x="60" y="327" fill="#00e5ff" font-size="11">  [</text><text x="78" y="327" fill="#ffffff" font-size="11">15</text><text x="94" y="327" fill="#00e5ff" font-size="11">]</text><text x="104" y="327" fill="#2ed573" font-size="11"> Plugin System (14)   </text><text x="400" y="327" fill="#8b949e" font-size="11">Extensions</text><text x="760" y="327" text-anchor="end" fill="#00e5ff" font-size="11">║</text>
  <text x="40" y="342" fill="#00e5ff" font-size="11">  ║</text><text x="60" y="342" fill="#00e5ff" font-size="11">  [</text><text x="78" y="342" fill="#ffffff" font-size="11">18</text><text x="94" y="342" fill="#00e5ff" font-size="11">]</text><text x="104" y="342" fill="#00e5ff" font-size="11"> Live Dashboard       </text><text x="400" y="342" fill="#8b949e" font-size="11">System monitor</text><text x="760" y="342" text-anchor="end" fill="#00e5ff" font-size="11">║</text>
  <text x="40" y="357" fill="#00e5ff" font-size="11">  ║</text><text x="60" y="357" fill="#00e5ff" font-size="11">  [</text><text x="78" y="357" fill="#ffffff" font-size="11">28</text><text x="94" y="357" fill="#00e5ff" font-size="11">]</text><text x="104" y="357" fill="#ff4757" font-size="11"> Quinx Shield         </text><text x="400" y="357" fill="#8b949e" font-size="11">Terminal lock</text><text x="760" y="357" text-anchor="end" fill="#00e5ff" font-size="11">║</text>
  <text x="40" y="372" fill="#00e5ff" font-size="11">  ║</text><text x="60" y="372" fill="#00e5ff" font-size="11">  [</text><text x="78" y="372" fill="#ffffff" font-size="11">35</text><text x="94" y="372" fill="#00e5ff" font-size="11">]</text><text x="104" y="372" fill="#2ed573" font-size="11"> GitHub Integration   </text><text x="400" y="372" fill="#8b949e" font-size="11">Git made easy</text><text x="760" y="372" text-anchor="end" fill="#00e5ff" font-size="11">║</text>
  <text x="40" y="387" fill="#00e5ff" font-size="11">  ║</text><text x="60" y="387" fill="#00e5ff" font-size="11">  [</text><text x="78" y="387" fill="#ffffff" font-size="11">36</text><text x="94" y="387" fill="#00e5ff" font-size="11">]</text><text x="104" y="387" fill="#ffa502" font-size="11"> ASCII Games          </text><text x="400" y="387" fill="#8b949e" font-size="11">Snake, Tetris, Pong</text><text x="760" y="387" text-anchor="end" fill="#00e5ff" font-size="11">║</text>
  <text x="40" y="402" fill="#00e5ff" font-size="11">  ║</text><text x="60" y="402" fill="#00e5ff" font-size="11">  [</text><text x="78" y="402" fill="#ffffff" font-size="11">38</text><text x="94" y="402" fill="#00e5ff" font-size="11">]</text><text x="104" y="402" fill="#ffa502" font-size="11"> RGB Animation        </text><text x="400" y="402" fill="#8b949e" font-size="11">Preview effect</text><text x="760" y="402" text-anchor="end" fill="#00e5ff" font-size="11">║</text>
  <text x="40" y="417" fill="#00e5ff" font-size="11">  ╠──────────────────────────────────────────────────────────╣</text>
  <text x="40" y="432" fill="#00e5ff" font-size="11">  ║</text><text x="60" y="432" fill="#00e5ff" font-size="11">  [</text><text x="78" y="432" fill="#ffffff" font-size="11">00</text><text x="94" y="432" fill="#00e5ff" font-size="11">]</text><text x="104" y="432" fill="#ff4757" font-size="11"> Exit                 </text><text x="400" y="432" fill="#8b949e" font-size="11">Close terminal</text><text x="760" y="432" text-anchor="end" fill="#00e5ff" font-size="11">║</text>
  <text x="40" y="447" fill="#00e5ff" font-size="11">  ╚══════════════════════════════════════════════════════════╝</text>
  <!-- Prompt -->
  <text x="40" y="475" fill="#00e5ff" font-size="11">  ┌─ ❯ </text>
  <rect x="82" y="463" width="8" height="14" fill="#00e5ff" opacity="0.7">
    <animate attributeName="opacity" values="0.7;0;0.7" dur="1.2s" repeatCount="indefinite"/>
  </rect>
  <!-- Footer info -->
  <text x="40" y="510" fill="#8b949e" font-size="10">┌──[21:36:07] IP:192.168.1.5 BAT:85% RAM:1.2G/4G Git:[main]───────┘</text>
  <!-- Anime quote -->
  <text x="40" y="540" fill="#a855f7" font-size="10">💬 "The world isn't perfect. But it's there for us, doing the best it can."</text>
  <text x="40" y="555" fill="#8b949e" font-size="9">   — Fullmetal Alchemist</text>
  <text x="40" y="580" fill="#484f58" font-size="9">quinxOS v6.0 • 38 features • 22 themes • 14 plugins</text>
</svg>