<svg xmlns="http://www.w3.org/2000/svg" width="800" height="600" font-family="JetBrains Mono, monospace" font-size="13">
  <rect width="800" height="600" fill="#0d1117" rx="10"/>
  <rect width="800" height="32" fill="#21262d" rx="10"/>
  <rect y="10" width="800" height="22" fill="#21262d"/>
  <circle cx="20" cy="16" r="6" fill="#ff5f57"/>
  <circle cx="40" cy="16" r="6" fill="#febc2e"/>
  <circle cx="60" cy="16" r="6" fill="#28c840"/>
  <text x="400" y="20" text-anchor="middle" fill="#8b949e" font-size="12">Termux — Theme Gallery</text>
  <!-- Title -->
  <text x="40" y="60" fill="#a855f7" font-size="14" font-weight="bold">🎨 Theme Gallery — 22 Color Schemes</text>
  <!-- Row 1 -->
  <g transform="translate(40, 80)">
    <!-- Cyber Midnight -->
    <rect x="0" y="0" width="170" height="60" rx="6" fill="#161b22" stroke="#30363d"/>
    <rect x="8" y="8" width="154" height="18" rx="3" fill="#0d1117"/>
    <rect x="8" y="8" width="31" height="18" rx="3" fill="#00e5ff"/>
    <rect x="39" y="8" width="31" height="18" fill="#a855f7"/>
    <rect x="70" y="8" width="31" height="18" fill="#ff4757"/>
    <rect x="101" y="8" width="31" height="18" fill="#2ed573"/>
    <rect x="132" y="8" width="30" height="18" rx="0" fill="#1e90ff"/>
    <text x="85" y="42" text-anchor="middle" fill="#ffffff" font-size="10" font-weight="bold">Cyber Midnight</text>
    <text x="85" y="54" text-anchor="middle" fill="#8b949e" font-size="8">Deep space neon</text>
  </g>
  <g transform="translate(225, 80)">
    <!-- Matrix Green -->
    <rect x="0" y="0" width="170" height="60" rx="6" fill="#161b22" stroke="#30363d"/>
    <rect x="8" y="8" width="154" height="18" rx="3" fill="#000000"/>
    <rect x="8" y="8" width="31" height="18" rx="3" fill="#00ff41"/>
    <rect x="39" y="8" width="31" height="18" fill="#003b00"/>
    <rect x="70" y="8" width="31" height="18" fill="#ff0000"/>
    <rect x="101" y="8" width="31" height="18" fill="#ffff00"/>
    <rect x="132" y="8" width="30" height="18" fill="#00ff41"/>
    <text x="85" y="42" text-anchor="middle" fill="#ffffff" font-size="10" font-weight="bold">Matrix Green</text>
    <text x="85" y="54" text-anchor="middle" fill="#8b949e" font-size="8">Classic hacker</text>
  </g>
  <g transform="translate(410, 80)">
    <!-- Dracacula -->
    <rect x="0" y="0" width="170" height="60" rx="6" fill="#161b22" stroke="#30363d"/>
    <rect x="8" y="8" width="154" height="18" rx="3" fill="#282a36"/>
    <rect x="8" y="8" width="31" height="18" rx="3" fill="#ff79c6"/>
    <rect x="39" y="8" width="31" height="18" fill="#bd93f9"/>
    <rect x="70" y="8" width="31" height="18" fill="#ff5555"/>
    <rect x="101" y="8" width="31" height="18" fill="#50fa7b"/>
    <rect x="132" y="8" width="30" height="18" fill="#8be9fd"/>
    <text x="85" y="42" text-anchor="middle" fill="#ffffff" font-size="10" font-weight="bold">Dracacula</text>
    <text x="85" y="54" text-anchor="middle" fill="#8b949e" font-size="8">Dracula-inspired</text>
  </g>
  <g transform="translate(595, 80)">
    <!-- Nord -->
    <rect x="0" y="0" width="170" height="60" rx="6" fill="#161b22" stroke="#30363d"/>
    <rect x="8" y="8" width="154" height="18" rx="3" fill="#2e3440"/>
    <rect x="8" y="8" width="31" height="18" rx="3" fill="#88c0d0"/>
    <rect x="39" y="8" width="31" height="18" fill="#81a1c1"/>
    <rect x="70" y="8" width="31" height="18" fill="#bf616a"/>
    <rect x="101" y="8" width="31" height="18" fill="#a3be8c"/>
    <rect x="132" y="8" width="30" height="18" fill="#b48ead"/>
    <text x="85" y="42" text-anchor="middle" fill="#ffffff" font-size="10" font-weight="bold">Nord</text>
    <text x="85" y="54" text-anchor="middle" fill="#8b949e" font-size="8">Arctic north-blue</text>
  </g>
  <!-- Row 2 -->
  <g transform="translate(40, 155)">
    <rect x="0" y="0" width="170" height="60" rx="6" fill="#161b22" stroke="#30363d"/>
    <rect x="8" y="8" width="154" height="18" rx="3" fill="#1a1b26"/>
    <rect x="8" y="8" width="31" height="18" rx="3" fill="#7aa2f7"/>
    <rect x="39" y="8" width="31" height="18" fill="#bb9af7"/>
    <rect x="70" y="8" width="31" height="18" fill="#f7768e"/>
    <rect x="101" y="8" width="31" height="18" fill="#9ece6a"/>
    <rect x="132" y="8" width="30" height="18" fill="#7dcfff"/>
    <text x="85" y="42" text-anchor="middle" fill="#ffffff" font-size="10" font-weight="bold">Tokyo Night</text>
    <text x="85" y="54" text-anchor="middle" fill="#8b949e" font-size="8">Clean VS Code</text>
  </g>
  <g transform="translate(225, 155)">
    <rect x="0" y="0" width="170" height="60" rx="6" fill="#161b22" stroke="#30363d"/>
    <rect x="8" y="8" width="154" height="18" rx="3" fill="#282828"/>
    <rect x="8" y="8" width="31" height="18" rx="3" fill="#d79921"/>
    <rect x="39" y="8" width="31" height="18" fill="#458588"/>
    <rect x="70" y="8" width="31" height="18" fill="#cc241d"/>
    <rect x="101" y="8" width="31" height="18" fill="#98971a"/>
    <rect x="132" y="8" width="30" height="18" fill="#b16286"/>
    <text x="85" y="42" text-anchor="middle" fill="#ffffff" font-size="10" font-weight="bold">Gruvbox</text>
    <text x="85" y="54" text-anchor="middle" fill="#8b949e" font-size="8">Retro groove</text>
  </g>
  <g transform="translate(410, 155)">
    <rect x="0" y="0" width="170" height="60" rx="6" fill="#161b22" stroke="#30363d"/>
    <rect x="8" y="8" width="154" height="18" rx="3" fill="#1e1e2e"/>
    <rect x="8" y="8" width="31" height="18" rx="3" fill="#f5c2e7"/>
    <rect x="39" y="8" width="31" height="18" fill="#89b4fa"/>
    <rect x="70" y="8" width="31" height="18" fill="#f38ba8"/>
    <rect x="101" y="8" width="31" height="18" fill="#a6e3a1"/>
    <rect x="132" y="8" width="30" height="18" fill="#94e2d5"/>
    <text x="85" y="42" text-anchor="middle" fill="#ffffff" font-size="10" font-weight="bold">Catppuccin Mocha</text>
    <text x="85" y="54" text-anchor="middle" fill="#8b949e" font-size="8">Smooth pastel</text>
  </g>
  <g transform="translate(595, 155)">
    <rect x="0" y="0" width="170" height="60" rx="6" fill="#161b22" stroke="#30363d"/>
    <rect x="8" y="8" width="154" height="18" rx="3" fill="#262335"/>
    <rect x="8" y="8" width="31" height="18" rx="3" fill="#ff7edb"/>
    <rect x="39" y="8" width="31" height="18" fill="#03edf9"/>
    <rect x="70" y="8" width="31" height="18" fill="#fe4450"/>
    <rect x="101" y="8" width="31" height="18" fill="#72f1b8"/>
    <rect x="132" y="8" width="30" height="18" fill="#fede5d"/>
    <text x="85" y="42" text-anchor="middle" fill="#ffffff" font-size="10" font-weight="bold">Synthwave</text>
    <text x="85" y="54" text-anchor="middle" fill="#8b949e" font-size="8">Neon 80s retro</text>
  </g>
  <!-- Anime section header -->
  <text x="40" y="250" fill="#ff4757" font-size="13" font-weight="bold">🎌 Anime Themes (7)</text>
  <!-- Anime Row -->
  <g transform="translate(40, 265)">
    <rect x="0" y="0" width="170" height="60" rx="6" fill="#161b22" stroke="#ff4757" stroke-opacity="0.3"/>
    <rect x="8" y="8" width="154" height="18" rx="3" fill="#1a0a2e"/>
    <rect x="8" y="8" width="31" height="18" rx="3" fill="#6c3082"/>
    <rect x="39" y="8" width="31" height="18" fill="#47d16c"/>
    <rect x="70" y="8" width="31" height="18" fill="#ff0000"/>
    <rect x="101" y="8" width="31" height="18" fill="#f0e130"/>
    <rect x="132" y="8" width="30" height="18" fill="#9b59b6"/>
    <text x="85" y="42" text-anchor="middle" fill="#ffffff" font-size="10" font-weight="bold">Evangelion</text>
    <text x="85" y="54" text-anchor="middle" fill="#ff4757" font-size="8">EVA Unit-01</text>
  </g>
  <g transform="translate(225, 265)">
    <rect x="0" y="0" width="170" height="60" rx="6" fill="#161b22" stroke="#ff4757" stroke-opacity="0.3"/>
    <rect x="8" y="8" width="154" height="18" rx="3" fill="#0a0e27"/>
    <rect x="8" y="8" width="31" height="18" rx="3" fill="#4169e1"/>
    <rect x="39" y="8" width="31" height="18" fill="#9370db"/>
    <rect x="70" y="8" width="31" height="18" fill="#00bfff"/>
    <rect x="101" y="8" width="31" height="18" fill="#e0e0ff"/>
    <rect x="132" y="8" width="30" height="18" fill="#7b68ee"/>
    <text x="85" y="42" text-anchor="middle" fill="#ffffff" font-size="10" font-weight="bold">Gojo Satoru</text>
    <text x="85" y="54" text-anchor="middle" fill="#ff4757" font-size="8">Limitless blue/purple</text>
  </g>
  <g transform="translate(410, 265)">
    <rect x="0" y="0" width="170" height="60" rx="6" fill="#161b22" stroke="#ff4757" stroke-opacity="0.3"/>
    <rect x="8" y="8" width="154" height="18" rx="3" fill="#1a0a0a"/>
    <rect x="8" y="8" width="31" height="18" rx="3" fill="#ff1744"/>
    <rect x="39" y="8" width="31" height="18" fill="#ff6090"/>
    <rect x="70" y="8" width="31" height="18" fill="#e91e63"/>
    <rect x="101" y="8" width="31" height="18" fill="#ffcdd2"/>
    <rect x="132" y="8" width="30" height="18" fill="#ff8a80"/>
    <text x="85" y="42" text-anchor="middle" fill="#ffffff" font-size="10" font-weight="bold">Zero Two</text>
    <text x="85" y="54" text-anchor="middle" fill="#ff4757" font-size="8">Crimson darling</text>
  </g>
  <g transform="translate(595, 265)">
    <rect x="0" y="0" width="170" height="60" rx="6" fill="#161b22" stroke="#ff4757" stroke-opacity="0.3"/>
    <rect x="8" y="8" width="154" height="18" rx="3" fill="#1a0505"/>
    <rect x="8" y="8" width="31" height="18" rx="3" fill="#dc143c"/>
    <rect x="39" y="8" width="31" height="18" fill="#b22222"/>
    <rect x="70" y="8" width="31" height="18" fill="#ff0000"/>
    <rect x="101" y="8" width="31" height="18" fill="#8b0000"/>
    <rect x="132" y="8" width="30" height="18" fill="#ff4500"/>
    <text x="85" y="42" text-anchor="middle" fill="#ffffff" font-size="10" font-weight="bold">Power</text>
    <text x="85" y="54" text-anchor="middle" fill="#ff4757" font-size="8">Blood red chaos</text>
  </g>
  <!-- Prompt -->
  <text x="40" y="365" fill="#00e5ff" font-size="11">  Select theme [1-22] or 'b' for builder: </text>
  <rect x="370" y="353" width="8" height="14" fill="#00e5ff" opacity="0.7">
    <animate attributeName="opacity" values="0.7;0;0.7" dur="1.2s" repeatCount="indefinite"/>
  </rect>
  <!-- Theme Builder hint -->
  <text x="40" y="400" fill="#a855f7" font-size="10">💡 Tip: Press [b] to open Theme Builder — create unlimited custom themes with live preview!</text>
  <text x="40" y="580" fill="#484f58" font-size="9">QuinxOS v6.0 • 22 themes • 7 anime palettes</text>
</svg>